<mxfile host="app.diagrams.net" modified="2024-05-13T08:36:06.634Z" agent="Mozilla/5.0 (Windows NT 10.0; Win64; x64) AppleWebKit/537.36 (KHTML, like Gecko) Chrome/124.0.0.0 Safari/537.36" etag="0IDCSCoZz9hRcYkkzO3D" version="24.3.1" type="github">
  <diagram name="Page-1" id="CfuDnzUdAREOAfiRqM_1">
    <mxGraphModel dx="811" dy="433" grid="0" gridSize="10" guides="1" tooltips="1" connect="1" arrows="1" fold="1" page="0" pageScale="1" pageWidth="850" pageHeight="1100" background="#000000" math="0" shadow="0">
      <root>
        <mxCell id="0" />
        <mxCell id="1" parent="0" />
        <mxCell id="dSehZdOt6SYwNaZYVqWP-27" value="&lt;font style=&quot;font-size: 9px;&quot;&gt;Web App&lt;/font&gt;" style="swimlane;fontStyle=0;childLayout=stackLayout;horizontal=1;startSize=26;fillColor=none;horizontalStack=0;resizeParent=1;resizeParentMax=0;resizeLast=0;collapsible=1;marginBottom=0;whiteSpace=wrap;html=1;fontColor=#FFFFFF;strokeColor=#FFFFFF;" vertex="1" parent="1">
          <mxGeometry x="309.5" y="122" width="129" height="421" as="geometry">
            <mxRectangle x="309.5" y="122" width="71" height="26" as="alternateBounds" />
          </mxGeometry>
        </mxCell>
        <mxCell id="dSehZdOt6SYwNaZYVqWP-28" value="+ fi" style="text;strokeColor=none;fillColor=none;align=left;verticalAlign=top;spacingLeft=4;spacingRight=4;overflow=hidden;rotatable=0;points=[[0,0.5],[1,0.5]];portConstraint=eastwest;whiteSpace=wrap;html=1;" vertex="1" parent="dSehZdOt6SYwNaZYVqWP-27">
          <mxGeometry y="26" width="129" height="26" as="geometry" />
        </mxCell>
        <mxCell id="dSehZdOt6SYwNaZYVqWP-30" value="+ fi" style="text;strokeColor=none;fillColor=none;align=left;verticalAlign=top;spacingLeft=4;spacingRight=4;overflow=hidden;rotatable=0;points=[[0,0.5],[1,0.5]];portConstraint=eastwest;whiteSpace=wrap;html=1;" vertex="1" parent="dSehZdOt6SYwNaZYVqWP-27">
          <mxGeometry y="52" width="129" height="369" as="geometry" />
        </mxCell>
        <mxCell id="dSehZdOt6SYwNaZYVqWP-5" value="" style="edgeStyle=orthogonalEdgeStyle;rounded=0;orthogonalLoop=1;jettySize=auto;html=1;" edge="1" parent="1" source="dSehZdOt6SYwNaZYVqWP-3">
          <mxGeometry relative="1" as="geometry">
            <mxPoint x="235" y="362" as="targetPoint" />
          </mxGeometry>
        </mxCell>
        <mxCell id="dSehZdOt6SYwNaZYVqWP-7" value="" style="edgeStyle=orthogonalEdgeStyle;rounded=0;orthogonalLoop=1;jettySize=auto;html=1;" edge="1" parent="1" source="dSehZdOt6SYwNaZYVqWP-3">
          <mxGeometry relative="1" as="geometry">
            <mxPoint x="235" y="362" as="targetPoint" />
          </mxGeometry>
        </mxCell>
        <mxCell id="dSehZdOt6SYwNaZYVqWP-3" value="&lt;font style=&quot;font-size: 9px;&quot; color=&quot;#ffffff&quot;&gt;Клиент&lt;/font&gt;" style="shape=umlActor;verticalLabelPosition=bottom;verticalAlign=top;html=1;strokeColor=#FFFFFF;" vertex="1" parent="1">
          <mxGeometry x="217" y="325.5" width="30" height="60" as="geometry" />
        </mxCell>
        <mxCell id="dSehZdOt6SYwNaZYVqWP-14" value="&lt;span style=&quot;line-height: 107%; font-size: 9px;&quot;&gt;&lt;font style=&quot;font-size: 9px;&quot;&gt;Посмотреть все категории доходов&lt;/font&gt;&lt;/span&gt;" style="ellipse;whiteSpace=wrap;html=1;strokeColor=#FFFFFF;fontSize=9;" vertex="1" parent="1">
          <mxGeometry x="324.62" y="220" width="98.75" height="33" as="geometry" />
        </mxCell>
        <mxCell id="dSehZdOt6SYwNaZYVqWP-13" value="&lt;span style=&quot;line-height: 107%; font-size: 9px;&quot;&gt;&lt;font style=&quot;font-size: 9px;&quot;&gt;Записать свой расход&lt;/font&gt;&lt;/span&gt;" style="ellipse;whiteSpace=wrap;html=1;strokeColor=#FFFFFF;fontSize=9;" vertex="1" parent="1">
          <mxGeometry x="335.5" y="186" width="77" height="29" as="geometry" />
        </mxCell>
        <mxCell id="dSehZdOt6SYwNaZYVqWP-12" value="&lt;span style=&quot;line-height: 107%; font-size: 9px;&quot;&gt;&lt;font style=&quot;font-size: 9px;&quot;&gt;Записать свой доход&lt;/font&gt;&lt;/span&gt;" style="ellipse;whiteSpace=wrap;html=1;strokeColor=#FFFFFF;fontSize=9;" vertex="1" parent="1">
          <mxGeometry x="337.25" y="153" width="73.5" height="29" as="geometry" />
        </mxCell>
        <mxCell id="dSehZdOt6SYwNaZYVqWP-15" value="&lt;span style=&quot;line-height: 107%; font-size: 9px;&quot;&gt;&lt;font style=&quot;font-size: 9px;&quot;&gt;Посмотреть все категории расхода&lt;/font&gt;&lt;/span&gt;" style="ellipse;whiteSpace=wrap;html=1;strokeColor=#FFFFFF;fontSize=9;" vertex="1" parent="1">
          <mxGeometry x="327.87" y="257" width="92.25" height="34" as="geometry" />
        </mxCell>
        <mxCell id="dSehZdOt6SYwNaZYVqWP-16" value="&lt;span style=&quot;line-height: 107%; font-family: &amp;quot;Times New Roman&amp;quot;, serif; font-size: 9px;&quot;&gt;&lt;font style=&quot;font-size: 9px;&quot;&gt;Удалить категорию доходов&lt;/font&gt;&lt;/span&gt;" style="ellipse;whiteSpace=wrap;html=1;strokeColor=#FFFFFF;fontSize=9;" vertex="1" parent="1">
          <mxGeometry x="331.5" y="294" width="84.25" height="35" as="geometry" />
        </mxCell>
        <mxCell id="dSehZdOt6SYwNaZYVqWP-17" value="&lt;span style=&quot;line-height: 107%; font-family: &amp;quot;Times New Roman&amp;quot;, serif; font-size: 9px;&quot;&gt;&lt;font style=&quot;font-size: 9px;&quot;&gt;Удалить категорию расходов&lt;/font&gt;&lt;/span&gt;" style="ellipse;whiteSpace=wrap;html=1;strokeColor=#FFFFFF;fontSize=9;" vertex="1" parent="1">
          <mxGeometry x="327.5" y="333" width="92.25" height="33" as="geometry" />
        </mxCell>
        <mxCell id="dSehZdOt6SYwNaZYVqWP-18" value="&lt;span style=&quot;line-height: 107%; font-family: &amp;quot;Times New Roman&amp;quot;, serif; font-size: 9px;&quot;&gt;&lt;font style=&quot;font-size: 9px;&quot;&gt;Отчет по доходам за определенный период&lt;/font&gt;&lt;/span&gt;" style="ellipse;whiteSpace=wrap;html=1;strokeColor=#FFFFFF;fontSize=9;" vertex="1" parent="1">
          <mxGeometry x="324.12" y="369" width="99.75" height="35" as="geometry" />
        </mxCell>
        <mxCell id="dSehZdOt6SYwNaZYVqWP-19" value="&lt;span style=&quot;line-height: 107%; font-family: &amp;quot;Times New Roman&amp;quot;, serif; font-size: 9px;&quot;&gt;&lt;font style=&quot;font-size: 9px;&quot;&gt;Отчет по расходам за определенный период&lt;/font&gt;&lt;/span&gt;" style="ellipse;whiteSpace=wrap;html=1;strokeColor=#FFFFFF;fontSize=9;" vertex="1" parent="1">
          <mxGeometry x="320" y="407" width="108" height="34" as="geometry" />
        </mxCell>
        <mxCell id="dSehZdOt6SYwNaZYVqWP-20" value="&lt;span style=&quot;line-height: 107%; font-family: &amp;quot;Times New Roman&amp;quot;, serif; font-size: 9px;&quot;&gt;&lt;font style=&quot;font-size: 9px;&quot;&gt;Создать &quot;семью&quot;&lt;/font&gt;&lt;/span&gt;" style="ellipse;whiteSpace=wrap;html=1;strokeColor=#FFFFFF;fontSize=9;" vertex="1" parent="1">
          <mxGeometry x="336.25" y="444" width="75.5" height="23" as="geometry" />
        </mxCell>
        <mxCell id="dSehZdOt6SYwNaZYVqWP-21" value="&lt;span style=&quot;line-height: 107%; font-family: &amp;quot;Times New Roman&amp;quot;, serif; font-size: 9px;&quot;&gt;&lt;font style=&quot;font-size: 9px;&quot;&gt;Добавиться в &quot;семью&quot;&lt;/font&gt;&lt;/span&gt;" style="ellipse;whiteSpace=wrap;html=1;strokeColor=#FFFFFF;fontSize=9;" vertex="1" parent="1">
          <mxGeometry x="326.88" y="471" width="94.25" height="28" as="geometry" />
        </mxCell>
        <mxCell id="dSehZdOt6SYwNaZYVqWP-22" value="&lt;span style=&quot;line-height: 107%; font-family: &amp;quot;Times New Roman&amp;quot;, serif; font-size: 9px;&quot;&gt;&lt;font style=&quot;font-size: 9px;&quot;&gt;Просмотреть отчет по всей &quot;семье&quot;&lt;/font&gt;&lt;/span&gt;" style="ellipse;whiteSpace=wrap;html=1;strokeColor=#FFFFFF;fontSize=9;" vertex="1" parent="1">
          <mxGeometry x="326" y="503" width="96" height="36" as="geometry" />
        </mxCell>
        <mxCell id="dSehZdOt6SYwNaZYVqWP-31" value="" style="endArrow=open;endFill=1;endSize=8;html=1;rounded=0;strokeColor=#FFFFFF;entryX=0;entryY=0.5;entryDx=0;entryDy=0;" edge="1" parent="1" target="dSehZdOt6SYwNaZYVqWP-12">
          <mxGeometry width="160" relative="1" as="geometry">
            <mxPoint x="244" y="319" as="sourcePoint" />
            <mxPoint x="526" y="340" as="targetPoint" />
          </mxGeometry>
        </mxCell>
        <mxCell id="dSehZdOt6SYwNaZYVqWP-32" value="" style="endArrow=open;endFill=1;endSize=8;html=1;rounded=0;strokeColor=#FFFFFF;entryX=0;entryY=0.5;entryDx=0;entryDy=0;" edge="1" parent="1" target="dSehZdOt6SYwNaZYVqWP-13">
          <mxGeometry width="160" relative="1" as="geometry">
            <mxPoint x="250" y="327" as="sourcePoint" />
            <mxPoint x="347" y="178" as="targetPoint" />
          </mxGeometry>
        </mxCell>
        <mxCell id="dSehZdOt6SYwNaZYVqWP-33" value="" style="endArrow=open;endFill=1;endSize=8;html=1;rounded=0;strokeColor=#FFFFFF;entryX=0;entryY=0.5;entryDx=0;entryDy=0;" edge="1" parent="1" target="dSehZdOt6SYwNaZYVqWP-14">
          <mxGeometry width="160" relative="1" as="geometry">
            <mxPoint x="254" y="335" as="sourcePoint" />
            <mxPoint x="346" y="211" as="targetPoint" />
          </mxGeometry>
        </mxCell>
        <mxCell id="dSehZdOt6SYwNaZYVqWP-34" value="" style="endArrow=open;endFill=1;endSize=8;html=1;rounded=0;strokeColor=#FFFFFF;entryX=0;entryY=0.5;entryDx=0;entryDy=0;" edge="1" parent="1" target="dSehZdOt6SYwNaZYVqWP-15">
          <mxGeometry width="160" relative="1" as="geometry">
            <mxPoint x="257" y="344" as="sourcePoint" />
            <mxPoint x="335" y="247" as="targetPoint" />
          </mxGeometry>
        </mxCell>
        <mxCell id="dSehZdOt6SYwNaZYVqWP-35" value="" style="endArrow=open;endFill=1;endSize=8;html=1;rounded=0;strokeColor=#FFFFFF;entryX=0;entryY=0.5;entryDx=0;entryDy=0;" edge="1" parent="1" target="dSehZdOt6SYwNaZYVqWP-16">
          <mxGeometry width="160" relative="1" as="geometry">
            <mxPoint x="258" y="355" as="sourcePoint" />
            <mxPoint x="338" y="284" as="targetPoint" />
          </mxGeometry>
        </mxCell>
        <mxCell id="dSehZdOt6SYwNaZYVqWP-36" value="" style="endArrow=open;endFill=1;endSize=8;html=1;rounded=0;strokeColor=#FFFFFF;entryX=0;entryY=0.5;entryDx=0;entryDy=0;" edge="1" parent="1" target="dSehZdOt6SYwNaZYVqWP-17">
          <mxGeometry width="160" relative="1" as="geometry">
            <mxPoint x="259" y="364" as="sourcePoint" />
            <mxPoint x="341" y="322" as="targetPoint" />
          </mxGeometry>
        </mxCell>
        <mxCell id="dSehZdOt6SYwNaZYVqWP-37" value="" style="endArrow=open;endFill=1;endSize=8;html=1;rounded=0;strokeColor=#FFFFFF;entryX=0;entryY=0.5;entryDx=0;entryDy=0;" edge="1" parent="1" target="dSehZdOt6SYwNaZYVqWP-18">
          <mxGeometry width="160" relative="1" as="geometry">
            <mxPoint x="258" y="377" as="sourcePoint" />
            <mxPoint x="337" y="360" as="targetPoint" />
          </mxGeometry>
        </mxCell>
        <mxCell id="dSehZdOt6SYwNaZYVqWP-38" value="" style="endArrow=open;endFill=1;endSize=8;html=1;rounded=0;strokeColor=#FFFFFF;entryX=0;entryY=0.5;entryDx=0;entryDy=0;" edge="1" parent="1" target="dSehZdOt6SYwNaZYVqWP-19">
          <mxGeometry width="160" relative="1" as="geometry">
            <mxPoint x="256" y="387" as="sourcePoint" />
            <mxPoint x="334" y="397" as="targetPoint" />
          </mxGeometry>
        </mxCell>
        <mxCell id="dSehZdOt6SYwNaZYVqWP-39" value="" style="endArrow=open;endFill=1;endSize=8;html=1;rounded=0;strokeColor=#FFFFFF;entryX=0;entryY=0.5;entryDx=0;entryDy=0;" edge="1" parent="1" target="dSehZdOt6SYwNaZYVqWP-20">
          <mxGeometry width="160" relative="1" as="geometry">
            <mxPoint x="255" y="399" as="sourcePoint" />
            <mxPoint x="330" y="434" as="targetPoint" />
          </mxGeometry>
        </mxCell>
        <mxCell id="dSehZdOt6SYwNaZYVqWP-40" value="" style="endArrow=open;endFill=1;endSize=8;html=1;rounded=0;strokeColor=#FFFFFF;entryX=0;entryY=0.5;entryDx=0;entryDy=0;" edge="1" parent="1" target="dSehZdOt6SYwNaZYVqWP-21">
          <mxGeometry width="160" relative="1" as="geometry">
            <mxPoint x="254" y="409" as="sourcePoint" />
            <mxPoint x="346" y="466" as="targetPoint" />
          </mxGeometry>
        </mxCell>
        <mxCell id="dSehZdOt6SYwNaZYVqWP-41" value="" style="endArrow=open;endFill=1;endSize=8;html=1;rounded=0;strokeColor=#FFFFFF;entryX=0;entryY=0.5;entryDx=0;entryDy=0;" edge="1" parent="1" target="dSehZdOt6SYwNaZYVqWP-22">
          <mxGeometry width="160" relative="1" as="geometry">
            <mxPoint x="246" y="414" as="sourcePoint" />
            <mxPoint x="337" y="495" as="targetPoint" />
          </mxGeometry>
        </mxCell>
      </root>
    </mxGraphModel>
  </diagram>
</mxfile>
